<?xml version="1.0" encoding="UTF-8"?>
<svg id="Calque_2" data-name="Calque 2" xmlns="http://www.w3.org/2000/svg" viewBox="0 0 61.01 63.77">
  <defs>
    <style>
      .cls-1 {
        fill: #27348b;
        stroke-width: 0px;
      }
    </style>
  </defs>
  <g id="Calque_7" data-name="Calque 7">
    <g>
      <path class="cls-1" d="M28.35,35.82l-14.21,5.97c-.15.06-.32.06-.47,0l-10.06-4.74c-.2-.1-.33-.3-.33-.52v-9.11c0-.22.13-.42.33-.52l11.07-5.26c.15-.07.33-.08.48,0l12.67,5.41c.47.2.47.86,0,1.06l-6.35,2.67c-.21.09-.35.3-.35.53h0c0,.23.14.44.35.53l6.88,2.94c.47.2.47.86,0,1.06Z"/>
      <path class="cls-1" d="M61.01,49.07v14.13c0,.42-.44.7-.83.52l-29.19-13.77c-.44-.21-.44-.83,0-1.04l14.22-6.75c.15-.07.32-.07.48,0l14.97,6.38c.21.09.35.3.35.53Z"/>
      <path class="cls-1" d="M61.01.58v13.17c0,.23-.14.44-.35.53l-13.96,5.87c-.15.06-.33.06-.47-.01l-13.13-6.2c-.44-.21-.44-.83,0-1.04L60.18.06c.38-.18.83.1.83.52Z"/>
      <path class="cls-1" d="M56.44,26.75v8.3c0,.22-.13.42-.33.52l-12.25,5.8-15.49,7.35L.83,61.76c-.38.18-.83-.1-.83-.52v-11.7c0-.23.14-.44.35-.53l15.14-6.37,15.79-6.64,8.25-3.47c.21-.09.35-.3.35-.53v-.87c0-.23-.14-.44-.35-.53l-8.78-3.75-14.25-6.08L.35,13.88c-.21-.09-.35-.3-.35-.53V.68C0,.26.44-.02.83.16l29.65,13.98,14.38,6.79,11.26,5.3c.2.1.33.3.33.52Z"/>
    </g>
  </g>
</svg>